<svg width="50" height="50" viewBox="0 0 50 50" fill="none" xmlns="http://www.w3.org/2000/svg">
<path d="M14.5808 21.3474L15.4867 22.9328C16.0635 23.9422 16.3519 24.4468 16.3519 25.0001C16.3519 25.5535 16.0635 26.058 15.4868 27.0674L14.5808 28.6528C12.001 33.1674 10.7111 35.4249 11.717 36.5443C12.7228 37.6637 15.1047 36.6216 19.8685 34.5374L32.9428 28.8174C36.6835 27.181 38.5537 26.3626 38.5537 25.0001C38.5537 23.6376 36.6835 22.8193 32.9428 21.1828L19.8685 15.4628C15.1047 13.3787 12.7228 12.3366 11.717 13.456C10.7111 14.5754 12.001 16.8327 14.5808 21.3474Z" fill="#BD54C3" fill-opacity="0.7"/>
</svg>
