<svg width="28" height="24" viewBox="0 0 28 24" fill="none" xmlns="http://www.w3.org/2000/svg">
<path d="M4.0149 8.09934L4.01489 8.09933C2.71708 5.82814 1.77067 4.16974 1.26697 2.93907C1.01554 2.32474 0.892758 1.85887 0.876784 1.50392C0.861596 1.16643 0.942687 0.952881 1.08887 0.790199L1.08889 0.79018C1.23505 0.627512 1.43873 0.524137 1.77591 0.503289C2.13053 0.481362 2.60682 0.553814 3.24445 0.738375C4.52177 1.1081 6.27156 1.87244 8.66806 2.92088L21.7424 8.64088L21.9428 8.1828L21.7424 8.64088C23.6282 9.4659 24.9903 10.0632 25.8876 10.6192C26.7971 11.1828 27.0537 11.5981 27.0537 12.0001C27.0537 12.4021 26.7971 12.8175 25.8876 13.381C24.9903 13.937 23.6282 14.5344 21.7424 15.3593L21.7424 15.3593L8.66806 21.0793L8.86847 21.5374L8.66806 21.0793C6.27155 22.1278 4.52176 22.8922 3.24445 23.2619C2.60682 23.4465 2.13053 23.5189 1.77591 23.497C1.43873 23.4762 1.23505 23.3728 1.08889 23.2101L1.08887 23.2101C0.942691 23.0474 0.861596 22.8339 0.876784 22.4964C0.892759 22.1414 1.01554 21.6755 1.26698 21.0611C1.77067 19.8304 2.71708 18.172 4.01488 15.9009C4.01489 15.9009 4.01489 15.9009 4.01489 15.9009L4.92088 14.3155L4.92091 14.3154L4.93391 14.2927C5.21152 13.8068 5.43771 13.4109 5.5918 13.0674C5.75275 12.7085 5.85187 12.3719 5.85187 12.0001C5.85187 11.6284 5.75275 11.2917 5.59178 10.9329C5.43758 10.5891 5.21119 10.1929 4.93329 9.70661L4.9208 9.68474L4.92079 9.68473L4.0149 8.09934Z" fill="#1E2128" fill-opacity="0.7" stroke="white"/>
</svg>
