<svg width="60" height="60" viewBox="0 0 72 72" fill="none" xmlns="http://www.w3.org/2000/svg">
<path d="M9 13C9 11.5999 9 10.8998 9.27248 10.365C9.51217 9.89462 9.89462 9.51217 10.365 9.27248C10.8998 9 11.5999 9 13 9H59C60.4001 9 61.1002 9 61.635 9.27248C62.1054 9.51217 62.4878 9.89462 62.7275 10.365C63 10.8998 63 11.5999 63 13V59C63 60.4001 63 61.1002 62.7275 61.635C62.4878 62.1054 62.1054 62.4878 61.635 62.7275C61.1002 63 60.4001 63 59 63H13C11.5999 63 10.8998 63 10.365 62.7275C9.89462 62.4878 9.51217 62.1054 9.27248 61.635C9 61.1002 9 60.4001 9 59V13Z" stroke="#ffffffc1" stroke-width="2"/>
<circle cx="24" cy="36" r="8" stroke="#ffffffc1" stroke-width="2"/>
<path d="M32 36H42.8571M51 42V36.15C51 36.0672 50.9328 36 50.85 36H42.8571M42.8571 36V42" stroke="#ffffffc1" stroke-width="2" stroke-linecap="round"/>
</svg>
